<svg xmlns="http://www.w3.org/2000/svg" version="1.0" width="1024.000000pt" height="1024.000000pt" viewBox="0 0 1024.000000 1024.000000" preserveAspectRatio="xMidYMid meet">

<g transform="translate(0.000000,1024.000000) scale(0.100000,-0.100000)" fill="#ffffff" stroke="none">
<path d="M3538 6635 c-104 -17 -240 -61 -356 -115 -280 -131 -523 -368 -683 -665 -110 -203 -180 -541 -164 -790 23 -352 125 -619 340 -887 186 -232 409 -390 687 -487 151 -52 239 -64 448 -58 165 4 198 8 300 35 267 70 474 194 745 445 l80 74 -54 59 c-102 111 -374 399 -494 521 l-120 123 -86 -88 c-146 -150 -249 -197 -431 -196 -121 0 -169 14 -267 76 -164 104 -258 298 -238 493 24 222 106 350 280 436 163 80 316 79 485 -3 76 -37 152 -111 541 -523 766 -813 1061 -1110 1194 -1204 163 -115 374 -205 549 -236 115 -20 337 -20 452 0 109 19 272 73 379 125 277 135 526 393 680 705 173 353 201 796 73 1165 -80 230 -200 422 -373 596 -169 171 -311 261 -533 338 -162 56 -253 70 -447 70 -190 0 -272 -13 -433 -68 -245 -83 -419 -193 -650 -410 l-82 -78 31 -37 c18 -20 154 -166 303 -325 149 -158 277 -297 284 -307 13 -18 18 -16 84 46 138 127 275 193 423 202 165 11 299 -40 406 -155 112 -118 153 -225 152 -392 -1 -114 -25 -199 -81 -286 -130 -200 -364 -281 -591 -204 -149 50 -138 40 -1006 965 -427 456 -651 679 -773 768 -161 119 -355 210 -547 258 -107 27 -382 35 -507 14z" fill="#ffffff"/>
</g>
</svg>